<svg width="264" height="274" viewBox="0 0 264 274" fill="none" xmlns="http://www.w3.org/2000/svg">
<mask id="path-1-inside-1_147_8" fill="white">
<path fill-rule="evenodd" clip-rule="evenodd" d="M32.0922 271.714C28.6123 272.526 25.121 273.269 21.62 273.943C18.6825 274.496 16.45 270.902 17.6103 267.688C18.9144 264.07 20.1098 260.399 21.1941 256.681L21.2381 256.509C24.8806 244.068 27.8475 229.76 28.9344 216.438C10.9128 195.185 0 167.365 0 136.954C0 70.1529 52.6106 16 117.5 16C182.389 16 235 70.1529 235 136.954C235 203.755 182.389 257.908 117.5 257.908C105.862 257.927 94.273 256.149 83.0284 252.621C75.3909 257.165 58.9556 265.442 32.0922 271.714ZM42.7545 210.606C42.0258 208.213 40.8576 206.04 39.3331 204.239C23.7497 185.854 14.6875 162.32 14.6875 136.954C14.6875 81.799 58.8088 33.2792 117.5 33.2792C176.191 33.2792 220.312 81.799 220.312 136.954C220.312 192.126 176.191 240.629 117.5 240.629C107.142 240.648 96.8264 239.068 86.8178 235.929C83.3264 234.832 79.6136 235.287 76.3897 237.208C70.7056 240.595 58.1919 247.057 37.7028 252.638C40.5592 241.357 42.5162 229.788 43.5484 218.08C43.7542 215.55 43.4831 212.998 42.7545 210.606Z"/>
<path d="M39.3331 204.239C40.8576 206.04 42.0258 208.213 42.7545 210.606C43.4831 212.998 43.7542 215.55 43.5484 218.08C42.5162 229.788 40.5592 241.357 37.7028 252.638C58.1919 247.057 70.7056 240.595 76.3897 237.208C79.6136 235.287 83.3264 234.832 86.8178 235.929C96.8264 239.068 107.142 240.648 117.5 240.629C176.191 240.629 220.312 192.126 220.312 136.954C220.312 81.799 176.191 33.2792 117.5 33.2792C58.8088 33.2792 14.6875 81.799 14.6875 136.954C14.6875 162.32 23.7497 185.854 39.3331 204.239Z"/>
</mask>
<path fill-rule="evenodd" clip-rule="evenodd" d="M32.0922 271.714C28.6123 272.526 25.121 273.269 21.62 273.943C18.6825 274.496 16.45 270.902 17.6103 267.688C18.9144 264.07 20.1098 260.399 21.1941 256.681L21.2381 256.509C24.8806 244.068 27.8475 229.76 28.9344 216.438C10.9128 195.185 0 167.365 0 136.954C0 70.1529 52.6106 16 117.5 16C182.389 16 235 70.1529 235 136.954C235 203.755 182.389 257.908 117.5 257.908C105.862 257.927 94.273 256.149 83.0284 252.621C75.3909 257.165 58.9556 265.442 32.0922 271.714ZM42.7545 210.606C42.0258 208.213 40.8576 206.04 39.3331 204.239C23.7497 185.854 14.6875 162.32 14.6875 136.954C14.6875 81.799 58.8088 33.2792 117.5 33.2792C176.191 33.2792 220.312 81.799 220.312 136.954C220.312 192.126 176.191 240.629 117.5 240.629C107.142 240.648 96.8264 239.068 86.8178 235.929C83.3264 234.832 79.6136 235.287 76.3897 237.208C70.7056 240.595 58.1919 247.057 37.7028 252.638C40.5592 241.357 42.5162 229.788 43.5484 218.08C43.7542 215.55 43.4831 212.998 42.7545 210.606Z" fill="black"/>
<path d="M39.3331 204.239C40.8576 206.04 42.0258 208.213 42.7545 210.606C43.4831 212.998 43.7542 215.55 43.5484 218.08C42.5162 229.788 40.5592 241.357 37.7028 252.638C58.1919 247.057 70.7056 240.595 76.3897 237.208C79.6136 235.287 83.3264 234.832 86.8178 235.929C96.8264 239.068 107.142 240.648 117.5 240.629C176.191 240.629 220.312 192.126 220.312 136.954C220.312 81.799 176.191 33.2792 117.5 33.2792C58.8088 33.2792 14.6875 81.799 14.6875 136.954C14.6875 162.32 23.7497 185.854 39.3331 204.239Z" fill="white"/>
<path d="M39.3331 204.239L39.7147 203.916L39.7145 203.916L39.3331 204.239ZM43.5484 218.08L44.0465 218.124L44.0468 218.12L43.5484 218.08ZM37.7028 252.638L37.2181 252.515L37.0079 253.346L37.8342 253.12L37.7028 252.638ZM76.3897 237.208L76.6456 237.637L76.6456 237.637L76.3897 237.208ZM86.8178 235.929L86.6679 236.406L86.6682 236.406L86.8178 235.929ZM117.5 240.629L117.5 240.129L117.499 240.129L117.5 240.629ZM38.9515 204.562C40.4295 206.308 41.5661 208.42 42.2761 210.751L43.2328 210.46C42.4855 208.007 41.2858 205.771 39.7147 203.916L38.9515 204.562ZM42.2761 210.751C42.9861 213.083 43.2508 215.571 43.0501 218.039L44.0468 218.12C44.2576 215.529 43.98 212.914 43.2328 210.46L42.2761 210.751ZM43.0504 218.036C42.0204 229.717 40.0679 241.261 37.2181 252.515L38.1875 252.761C41.0505 241.454 43.0119 229.858 44.0465 218.124L43.0504 218.036ZM37.8342 253.12C58.3685 247.527 70.924 241.046 76.6456 237.637L76.1338 236.778C70.4872 240.143 58.0152 246.587 37.5714 252.156L37.8342 253.12ZM76.6456 237.637C79.7508 235.787 83.3162 235.352 86.6679 236.406L86.9678 235.452C83.3366 234.311 79.4765 234.786 76.1338 236.778L76.6456 237.637ZM86.6682 236.406C96.7248 239.56 107.091 241.148 117.501 241.129L117.499 240.129C107.193 240.148 96.9279 238.576 86.9674 235.452L86.6682 236.406ZM117.5 241.129C176.484 241.129 220.812 192.386 220.812 136.954H219.812C219.812 191.867 175.899 240.129 117.5 240.129V241.129ZM220.812 136.954C220.812 81.5396 176.484 32.7792 117.5 32.7792V33.7792C175.899 33.7792 219.812 82.0585 219.812 136.954H220.812ZM117.5 32.7792C58.5162 32.7792 14.1875 81.5396 14.1875 136.954H15.1875C15.1875 82.0585 59.1013 33.7792 117.5 33.7792V32.7792ZM14.1875 136.954C14.1875 162.441 23.2935 186.089 38.9517 204.562L39.7145 203.916C24.2059 185.619 15.1875 162.199 15.1875 136.954H14.1875ZM32.0922 271.714L32.3193 272.688L32.3196 272.688L32.0922 271.714ZM21.62 273.943L21.805 274.926L21.8091 274.925L21.62 273.943ZM17.6103 267.688L18.5509 268.028L18.5511 268.027L17.6103 267.688ZM21.1941 256.681L22.1541 256.961L22.1588 256.945L22.1631 256.928L21.1941 256.681ZM21.2381 256.509L20.2784 256.228L20.2735 256.244L20.2691 256.262L21.2381 256.509ZM28.9344 216.438L29.9311 216.52L29.9647 216.107L29.6971 215.792L28.9344 216.438ZM117.5 257.908L117.5 256.908L117.498 256.908L117.5 257.908ZM83.0284 252.621L83.3278 251.667L82.9013 251.533L82.5171 251.761L83.0284 252.621ZM31.8651 270.74C28.3977 271.549 24.9192 272.289 21.4309 272.961L21.8091 274.925C25.3229 274.248 28.8268 273.503 32.3193 272.688L31.8651 270.74ZM21.435 272.961C20.4642 273.143 19.5413 272.668 18.9231 271.693C18.3018 270.713 18.0798 269.333 18.5509 268.028L16.6697 267.349C15.9805 269.258 16.2946 271.282 17.2338 272.764C18.1762 274.251 19.8383 275.296 21.805 274.926L21.435 272.961ZM18.5511 268.027C19.8623 264.389 21.064 260.698 22.1541 256.961L20.2341 256.401C19.1555 260.099 17.9666 263.751 16.6696 267.349L18.5511 268.027ZM22.1631 256.928L22.2071 256.756L20.2691 256.262L20.2251 256.434L22.1631 256.928ZM22.1978 256.79C25.8552 244.298 28.8376 229.923 29.9311 216.52L27.9377 216.357C26.8574 229.598 23.906 243.838 20.2784 256.228L22.1978 256.79ZM29.6971 215.792C11.8251 194.715 1 167.123 1 136.954H-1C-1 167.608 10.0005 195.655 28.1717 217.085L29.6971 215.792ZM1 136.954C1 70.6777 53.19 17 117.5 17V15C52.0312 15 -1 69.6281 -1 136.954H1ZM117.5 17C181.81 17 234 70.6777 234 136.954H236C236 69.6281 182.969 15 117.5 15V17ZM234 136.954C234 203.231 181.81 256.908 117.5 256.908V258.908C182.969 258.908 236 204.28 236 136.954H234ZM117.498 256.908C105.964 256.927 94.4762 255.165 83.3278 251.667L82.7291 253.575C94.0698 257.133 105.761 258.927 117.502 258.908L117.498 256.908ZM82.5171 251.761C74.9645 256.255 58.6246 264.492 31.8648 270.74L32.3196 272.688C59.2866 266.392 75.8174 258.075 83.5398 253.48L82.5171 251.761Z" fill="black" mask="url(#path-1-inside-1_147_8)"/>
<rect x="41" y="102" width="58" height="12" fill="black"/>
<rect x="132" y="102" width="58" height="12" fill="black"/>
<rect x="33" y="162" width="170" height="12" fill="black"/>
</svg>
