<svg width="1130" height="1120" viewBox="0 0 1130 1120" fill="none" xmlns="http://www.w3.org/2000/svg">
<g filter="url(#filter0_d_914_1324)">
<mask id="path-1-inside-1_914_1324" fill="white">
<path fill-rule="evenodd" clip-rule="evenodd" d="M140.878 1102.72C126.036 1106.02 111.145 1109.03 96.2126 1111.77C83.6837 1114.01 74.1617 1099.43 79.1107 1086.38C84.673 1071.7 89.7712 1056.8 94.3959 1041.71L94.5838 1041.01C110.12 990.523 122.774 932.459 127.409 878.392C50.5448 792.137 4 679.235 4 555.814C4 284.708 228.392 64.9346 505.155 64.9346C781.918 64.9346 1006.31 284.708 1006.31 555.814C1006.31 826.92 781.918 1046.69 505.155 1046.69C455.519 1046.77 406.089 1039.55 358.129 1025.23C325.554 1043.68 255.455 1077.27 140.878 1102.72ZM186.354 854.721C183.247 845.012 178.264 836.19 171.762 828.883C105.296 754.27 66.6444 658.758 66.6444 555.814C66.6444 331.973 254.828 135.06 505.155 135.06C755.482 135.06 943.666 331.973 943.666 555.814C943.666 779.725 755.482 976.568 505.155 976.568C460.976 976.646 416.979 970.233 374.291 957.494C359.4 953.039 343.564 954.887 329.814 962.683C305.57 976.428 252.197 1002.65 164.808 1025.31C176.991 979.523 185.338 932.569 189.741 885.054C190.618 874.787 189.462 864.43 186.354 854.721Z"/>
<path d="M171.762 828.883C178.264 836.19 183.247 845.012 186.354 854.721C189.462 864.43 190.618 874.787 189.741 885.054C185.338 932.569 176.991 979.523 164.808 1025.31C252.197 1002.65 305.57 976.428 329.814 962.683C343.564 954.887 359.4 953.039 374.291 957.494C416.979 970.233 460.976 976.646 505.155 976.568C755.482 976.568 943.666 779.725 943.666 555.814C943.666 331.973 755.482 135.06 505.155 135.06C254.828 135.06 66.6444 331.973 66.6444 555.814C66.6444 658.758 105.296 754.27 171.762 828.883Z"/>
</mask>
<path fill-rule="evenodd" clip-rule="evenodd" d="M140.878 1102.72C126.036 1106.02 111.145 1109.03 96.2126 1111.77C83.6837 1114.01 74.1617 1099.43 79.1107 1086.38C84.673 1071.7 89.7712 1056.8 94.3959 1041.71L94.5838 1041.01C110.12 990.523 122.774 932.459 127.409 878.392C50.5448 792.137 4 679.235 4 555.814C4 284.708 228.392 64.9346 505.155 64.9346C781.918 64.9346 1006.31 284.708 1006.31 555.814C1006.31 826.92 781.918 1046.69 505.155 1046.69C455.519 1046.77 406.089 1039.55 358.129 1025.23C325.554 1043.68 255.455 1077.27 140.878 1102.72ZM186.354 854.721C183.247 845.012 178.264 836.19 171.762 828.883C105.296 754.27 66.6444 658.758 66.6444 555.814C66.6444 331.973 254.828 135.06 505.155 135.06C755.482 135.06 943.666 331.973 943.666 555.814C943.666 779.725 755.482 976.568 505.155 976.568C460.976 976.646 416.979 970.233 374.291 957.494C359.4 953.039 343.564 954.887 329.814 962.683C305.57 976.428 252.197 1002.65 164.808 1025.31C176.991 979.523 185.338 932.569 189.741 885.054C190.618 874.787 189.462 864.43 186.354 854.721Z" fill="black"/>
<path d="M171.762 828.883C178.264 836.19 183.247 845.012 186.354 854.721C189.462 864.43 190.618 874.787 189.741 885.054C185.338 932.569 176.991 979.523 164.808 1025.31C252.197 1002.65 305.57 976.428 329.814 962.683C343.564 954.887 359.4 953.039 374.291 957.494C416.979 970.233 460.976 976.646 505.155 976.568C755.482 976.568 943.666 779.725 943.666 555.814C943.666 331.973 755.482 135.06 505.155 135.06C254.828 135.06 66.6444 331.973 66.6444 555.814C66.6444 658.758 105.296 754.27 171.762 828.883Z" fill="white"/>
<path d="M171.762 828.883L172.135 828.551L172.135 828.551L171.762 828.883ZM189.741 885.054L190.239 885.1L190.239 885.096L189.741 885.054ZM164.808 1025.31L164.325 1025.18L164.105 1026L164.934 1025.79L164.808 1025.31ZM329.814 962.683L330.06 963.118L330.06 963.118L329.814 962.683ZM374.291 957.494L374.148 957.973L374.148 957.973L374.291 957.494ZM505.155 976.568V976.068L505.154 976.068L505.155 976.568ZM171.388 829.216C177.842 836.468 182.791 845.228 185.878 854.874L186.83 854.569C183.702 844.796 178.686 835.912 172.135 828.551L171.388 829.216ZM185.878 854.874C188.965 864.519 190.114 874.81 189.242 885.011L190.239 885.096C191.122 874.765 189.958 864.341 186.83 854.569L185.878 854.874ZM189.243 885.008C184.843 932.496 176.501 979.421 164.325 1025.18L165.291 1025.43C177.482 979.624 185.833 932.643 190.239 885.1L189.243 885.008ZM164.934 1025.79C252.366 1003.13 305.78 976.884 330.06 963.118L329.567 962.248C305.361 975.972 252.028 1002.18 164.683 1024.82L164.934 1025.79ZM330.06 963.118C343.695 955.388 359.39 953.558 374.148 957.973L374.434 957.015C359.41 952.52 343.434 954.386 329.567 962.248L330.06 963.118ZM374.148 957.973C416.882 970.726 460.928 977.146 505.156 977.068L505.154 976.068C461.025 976.146 417.076 969.74 374.434 957.014L374.148 957.973ZM505.155 977.068C755.752 977.068 944.166 780.008 944.166 555.814H943.166C943.166 779.442 755.213 976.068 505.155 976.068V977.068ZM944.166 555.814C944.166 331.69 755.752 134.56 505.155 134.56V135.56C755.213 135.56 943.166 332.256 943.166 555.814H944.166ZM505.155 134.56C254.559 134.56 66.1444 331.69 66.1444 555.814H67.1444C67.1444 332.256 255.098 135.56 505.155 135.56V134.56ZM66.1444 555.814C66.1444 658.887 104.845 754.515 171.388 829.216L172.135 828.551C105.747 754.024 67.1444 658.63 67.1444 555.814H66.1444ZM140.878 1102.72L141.095 1103.7L141.095 1103.7L140.878 1102.72ZM96.2126 1111.77L96.3889 1112.75L96.3928 1112.75L96.2126 1111.77ZM79.1107 1086.38L80.0456 1086.74L80.0458 1086.74L79.1107 1086.38ZM94.3959 1041.71L95.352 1042.01L95.3572 1041.99L95.3618 1041.97L94.3959 1041.71ZM94.5838 1041.01L93.628 1040.72L93.6226 1040.74L93.6179 1040.75L94.5838 1041.01ZM127.409 878.392L128.406 878.477L128.443 878.048L128.156 877.727L127.409 878.392ZM505.155 1046.69L505.155 1045.69L505.154 1045.69L505.155 1046.69ZM358.129 1025.23L358.415 1024.28L358.007 1024.15L357.636 1024.36L358.129 1025.23ZM140.661 1101.75C125.831 1105.04 110.953 1108.05 96.0323 1110.79L96.3928 1112.75C111.337 1110.01 126.24 1107 141.095 1103.7L140.661 1101.75ZM96.0363 1110.79C90.2396 1111.82 85.0933 1108.99 81.9397 1104.26C78.7816 1099.51 77.6914 1092.94 80.0456 1086.74L78.1757 1086.03C75.581 1092.87 76.7773 1100.11 80.2752 1105.36C83.7776 1110.62 89.6566 1113.96 96.3889 1112.75L96.0363 1110.79ZM80.0458 1086.74C85.6158 1072.03 90.721 1057.11 95.352 1042.01L93.4398 1041.42C88.8214 1056.49 83.7301 1071.37 78.1755 1086.03L80.0458 1086.74ZM95.3618 1041.97L95.5497 1041.27L93.6179 1040.75L93.43 1041.46L95.3618 1041.97ZM95.5396 1041.31C111.092 990.764 123.763 932.629 128.406 878.477L126.413 878.306C121.785 932.288 109.148 990.281 93.628 1040.72L95.5396 1041.31ZM128.156 877.727C51.4468 791.646 5 678.978 5 555.814H3C3 679.492 49.6428 792.628 126.663 879.057L128.156 877.727ZM5 555.814C5 285.28 228.925 65.9346 505.155 65.9346V63.9346C227.86 63.9346 3 284.137 3 555.814H5ZM505.155 65.9346C781.386 65.9346 1005.31 285.28 1005.31 555.814H1007.31C1007.31 284.137 782.451 63.9346 505.155 63.9346V65.9346ZM1005.31 555.814C1005.31 826.348 781.386 1045.69 505.155 1045.69V1047.69C782.451 1047.69 1007.31 827.491 1007.31 555.814H1005.31ZM505.154 1045.69C455.616 1045.77 406.282 1038.57 358.415 1024.28L357.843 1026.19C405.895 1040.54 455.422 1047.77 505.157 1047.69L505.154 1045.69ZM357.636 1024.36C325.145 1042.76 255.139 1076.31 140.661 1101.75L141.095 1103.7C255.771 1078.22 325.963 1044.6 358.622 1026.11L357.636 1024.36Z" fill="black" mask="url(#path-1-inside-1_914_1324)"/>
<rect x="200.197" y="410.585" width="213.258" height="51.3231" fill="black"/>
<rect x="609.651" y="410.585" width="213.258" height="51.3231" fill="black"/>
<rect width="25.6323" height="128.129" transform="matrix(0.67248 0.740338 -0.738252 0.674281 433.634 635.744)" fill="black"/>
<rect width="25.6221" height="128.124" transform="matrix(0.719724 -0.694024 0.692269 0.721867 265.246 646.043)" fill="black"/>
<rect width="25.6245" height="128.112" transform="matrix(0.694941 -0.71884 0.717155 0.697147 417.882 656.577)" fill="black"/>
<rect width="25.6244" height="128.169" transform="matrix(0.752761 0.658535 -0.656259 0.754325 733.065 618.135)" fill="black"/>
<rect width="25.6285" height="128.092" transform="matrix(0.651556 -0.758392 0.756845 0.653838 565.21 655.523)" fill="black"/>
<rect width="25.6288" height="128.146" transform="matrix(0.708847 0.705593 -0.703406 0.710558 583.476 635.55)" fill="black"/>
</g>
<defs>
<filter id="filter0_d_914_1324" x="0" y="0" width="1134" height="1120" filterUnits="userSpaceOnUse" color-interpolation-filters="sRGB">
<feFlood flood-opacity="0" result="BackgroundImageFix"/>
<feColorMatrix in="SourceAlpha" type="matrix" values="0 0 0 0 0 0 0 0 0 0 0 0 0 0 0 0 0 0 127 0" result="hardAlpha"/>
<feOffset dy="4"/>
<feGaussianBlur stdDeviation="2"/>
<feComposite in2="hardAlpha" operator="out"/>
<feColorMatrix type="matrix" values="0 0 0 0 0 0 0 0 0 0 0 0 0 0 0 0 0 0 0.4 0"/>
<feBlend mode="normal" in2="BackgroundImageFix" result="effect1_dropShadow_914_1324"/>
<feBlend mode="normal" in="SourceGraphic" in2="effect1_dropShadow_914_1324" result="shape"/>
</filter>
</defs>
</svg>
