<svg width="120" height="120" viewBox="0 0 120 120" fill="none" xmlns="http://www.w3.org/2000/svg">
<path d="M116.265 14.55C116.966 15.2529 117.359 16.205 117.359 17.1975C117.359 18.19 116.966 19.1421 116.265 19.845L108.443 27.675L93.4426 12.675L101.265 4.84502C101.968 4.142 102.922 3.74707 103.916 3.74707C104.911 3.74707 105.864 4.142 106.568 4.84502L116.265 14.5425V14.55ZM103.14 32.97L88.1401 17.97L37.0426 69.075C36.6298 69.4877 36.319 69.9911 36.1351 70.545L30.0976 88.65C29.9881 88.9801 29.9725 89.3341 30.0527 89.6725C30.1328 90.0109 30.3055 90.3203 30.5514 90.5662C30.7973 90.8121 31.1067 90.9848 31.4451 91.0649C31.7835 91.1451 32.1375 91.1295 32.4676 91.02L50.5726 84.9825C51.1258 84.8007 51.6291 84.4926 52.0426 84.0825L103.14 32.9775V32.97Z" fill="#1C98EC"/>
<path fill-rule="evenodd" clip-rule="evenodd" d="M7.5 101.25C7.5 104.234 8.68526 107.095 10.795 109.205C12.9048 111.315 15.7663 112.5 18.75 112.5H101.25C104.234 112.5 107.095 111.315 109.205 109.205C111.315 107.095 112.5 104.234 112.5 101.25V56.25C112.5 55.2554 112.105 54.3016 111.402 53.5984C110.698 52.8951 109.745 52.5 108.75 52.5C107.755 52.5 106.802 52.8951 106.098 53.5984C105.395 54.3016 105 55.2554 105 56.25V101.25C105 102.245 104.605 103.198 103.902 103.902C103.198 104.605 102.245 105 101.25 105H18.75C17.7554 105 16.8016 104.605 16.0984 103.902C15.3951 103.198 15 102.245 15 101.25V18.75C15 17.7554 15.3951 16.8016 16.0984 16.0984C16.8016 15.3951 17.7554 15 18.75 15H67.5C68.4946 15 69.4484 14.6049 70.1517 13.9017C70.8549 13.1984 71.25 12.2446 71.25 11.25C71.25 10.2554 70.8549 9.30161 70.1517 8.59835C69.4484 7.89509 68.4946 7.5 67.5 7.5H18.75C15.7663 7.5 12.9048 8.68526 10.795 10.795C8.68526 12.9048 7.5 15.7663 7.5 18.75V101.25Z" fill="#1C98EC"/>
</svg>
